<?xml version="1.0" encoding="UTF-8" standalone="no"?>
<!-- Created with Inkscape (http://www.inkscape.org/) -->

<svg
   width="30.475098mm"
   height="25.93627mm"
   viewBox="0 0 30.475098 25.93627"
   version="1.1"
   id="svg1"
   xml:space="preserve"
   xmlns="http://www.w3.org/2000/svg"
   xmlns:svg="http://www.w3.org/2000/svg"><defs
     id="defs1" /><g
     id="layer2"
     transform="translate(67.017595,33.961734)"><path
       d="m -55.748434,-33.879892 -11.18716,0.01185 0.0515,25.760734 h 5.81001 5.32568 14.76671 c 2.41398,0 4.35735,-1.510078 4.35735,-3.386005 v -6.77231 c 0,-1.12326 -0.69978,-2.112819 -1.77715,-2.728136 1.07727,-0.615325 1.77715,-1.604304 1.77715,-2.727513 v -6.77231 c 0,-1.875927 -1.94337,-3.38631 -4.35735,-3.38631 z m -0.27397,7.611713 h 9.49122 c 0.42633,0 0.76981,0.334827 0.76981,0.750815 0,0.415988 -0.34348,0.751127 -0.76981,0.751127 h -9.49122 c -0.42633,0 -0.76949,-0.335139 -0.76949,-0.751127 0,-0.415988 0.34316,-0.750815 0.76949,-0.750815 z m 0,8.510071 h 9.49122 c 0.42633,0 0.76981,0.334828 0.76981,0.750814 0,0.415991 -0.34348,0.750817 -0.76981,0.750817 h -9.49122 c -0.42633,0 -0.76949,-0.334826 -0.76949,-0.750817 0,-0.415986 0.34316,-0.750814 0.76949,-0.750814 z"
       style="fill:#1a1a1a;fill-rule:evenodd;stroke:#ffffff;stroke-width:0.163683"
       id="path41" /></g></svg>
