
<svg
   width="122.4566mm"
   height="118.66202mm"
   viewBox="0 0 122.4566 118.66202"
  
   id="svg1"
  ><defs
     id="defs1" /><g
     inkscape:label="Layer 1"
     inkscape:groupmode="layer"
     id="layer1"
     transform="translate(-61.26201,136.35569)"><path
       d="m 66.781055,-136.35569 c -3.057613,0 -5.519043,2.46143 -5.519043,5.51904 v 107.623928 c 0,3.05761 2.46143,5.51904 5.519043,5.51904 H 178.19906 c 3.05761,0 5.51956,-2.46143 5.51956,-5.51904 V -130.83665 c 0,-3.05761 -2.46195,-5.51904 -5.51956,-5.51904 z m 9.929627,12.176 h 41.021778 v 10.61227 h -14.77583 v 34.353979 H 91.486007 V -113.56742 H 76.710682 Z m 44.345608,0.0439 h 34.15296 c 7.38784,0 13.41468,5.57576 13.41468,12.35067 v 32.615579 h -26.76477 c -7.32305,0 -13.35009,-5.575761 -13.35009,-12.350668 v -22.003301 h -7.45278 z m 18.92339,10.61227 h 15.22957 c 1.03689,0 1.94406,0.77912 1.94406,1.7384 v 22.003828 h -15.29415 c -1.03689,0 -1.87948,-0.779633 -1.87948,-1.738912 z m -63.622982,38.687569 h 45.558452 v 5.276164 c 0,4.316754 -0.8429,10.012604 -5.44411,14.329358 h 7.45278 v 25.360727 H 83.808956 v -34.353977 h -7.452258 z m 62.515562,0 h 23.52414 v 10.612272 h -6.0265 v 23.742217 h 6.0265 v 10.61176 h -23.52414 v -10.61176 h 6.02702 v -23.742217 h -6.02702 z m -43.592686,10.612272 h 14.711246 c -1.1017,5.276034 -4.66636,7.733885 -14.711246,7.79384 z m 0,18.406112 H 112.4532 v 5.336105 H 95.279574 Z"
       style="fill:#ffffff;fill-rule:evenodd;stroke-width:0.264583"
       id="path4" /></g></svg>
