<?xml version="1.0" encoding="UTF-8" standalone="no"?>
<!-- Created with Inkscape (http://www.inkscape.org/) -->

<svg
   width="26.675068mm"
   height="26.14946mm"
   viewBox="0 0 26.675068 26.14946"
   version="1.1"
   id="svg1"
   xml:space="preserve"
   xmlns="http://www.w3.org/2000/svg"
   xmlns:svg="http://www.w3.org/2000/svg"><defs
     id="defs1" /><g
     id="layer2"
     transform="translate(110.70962,57.631373)"><path
       d="m -106.09071,-57.557542 c -2.51799,0 -4.54508,1.950134 -4.54508,4.37253 v 17.256455 c 0,2.422404 2.02709,4.37281 4.54508,4.37281 h 17.436947 c 2.51798,0 4.54537,-1.950406 4.54537,-4.37281 v -17.256455 c 0,-2.422396 -2.02739,-4.37253 -4.54537,-4.37253 z m 8.718467,6.901507 c 0.50836,0 0.91772,0.393823 0.91772,0.88288 v 10.432736 c 0,0.48906 -0.40936,0.882881 -0.91772,0.882881 -0.50835,0 -0.91742,-0.393821 -0.91742,-0.882881 v -10.432736 c 0,-0.489057 0.40907,-0.88288 0.91742,-0.88288 z"
       style="fill-rule:evenodd;stroke:#ffffff;stroke-width:0.147666"
       id="path42" /></g></svg>
